<?xml version="1.0" encoding="UTF-8"?>
<svg id="Capa_2" xmlns="http://www.w3.org/2000/svg" viewBox="0 0 66.94 50.7">
  <defs>
    <style>
      .cls-1 {
        fill: #fff;
      }
    </style>
  </defs>
  <g id="Capa_1-2" data-name="Capa_1">
    <g>
      <path class="cls-1" d="M43.77,22.36l-14.79-8.09c-.85-.47-1.86-.45-2.69.05-.83.49-1.33,1.37-1.33,2.34v16.04c0,.96.49,1.84,1.32,2.33.43.26.91.39,1.39.39.44,0,.88-.11,1.29-.33l14.79-7.95c.88-.47,1.43-1.39,1.43-2.38,0-1-.54-1.91-1.41-2.39ZM28.89,30.67v-11.99l11.05,6.05-11.05,5.94Z"/>
      <path class="cls-1" d="M66.45,11.97v-.03c-.06-.54-.62-5.33-2.95-7.77-2.69-2.87-5.75-3.22-7.21-3.38-.12-.01-.23-.03-.33-.04h-.12C46.98.09,33.62,0,33.48,0h-.01s-.01,0-.01,0c-.13,0-13.5.09-22.43.73h-.12c-.09.03-.2.04-.31.05-1.45.17-4.47.52-7.17,3.49C1.21,6.68.57,11.37.5,11.9v.07c-.03.22-.5,5.56-.5,10.92v5.01c0,5.36.47,10.7.49,10.92v.03c.06.53.62,5.23,2.94,7.67,2.53,2.77,5.73,3.14,7.46,3.33.27.03.51.06.67.09l.15.02c5.11.49,21.13.73,21.81.74h.02s.02,0,.02,0c.13,0,13.5-.09,22.35-.73h.12c.11-.03.24-.04.38-.05,1.44-.15,4.45-.47,7.11-3.4,2.22-2.41,2.86-7.1,2.93-7.63v-.07c.03-.22.5-5.56.5-10.92v-5.01c0-5.36-.47-10.7-.49-10.92ZM63.02,27.9c0,4.96-.43,10.07-.47,10.54-.17,1.29-.84,4.26-1.92,5.43-1.67,1.83-3.38,2.02-4.63,2.15-.15.02-.29.03-.42.05-8.56.62-21.42.71-22.01.72-.66,0-16.45-.25-21.4-.71-.25-.04-.53-.07-.82-.11-1.47-.17-3.47-.4-5.02-2.1l-.04-.04c-1.06-1.11-1.72-3.88-1.89-5.38-.03-.35-.48-5.52-.48-10.55v-5.01c0-4.95.43-10.06.47-10.53.2-1.52.89-4.31,1.92-5.44,1.72-1.89,3.53-2.1,4.73-2.24.11-.01.22-.03.32-.04,8.68-.62,21.64-.71,22.1-.72.46,0,13.41.1,22.02.72.11.01.22.03.35.04,1.23.14,3.09.35,4.8,2.18l.02.02c1.06,1.11,1.72,3.93,1.89,5.46.03.33.48,5.51.48,10.55v5.01Z"/>
    </g>
  </g>
</svg>