<?xml version="1.0" encoding="UTF-8"?>
<svg id="Capa_2" xmlns="http://www.w3.org/2000/svg" viewBox="0 0 180.49 153.42">
  <defs>
    <style>
      .cls-1 {
        fill: #fff;
      }
    </style>
  </defs>
  <g id="Capa_1-2" data-name="Capa_1">
    <path id="_x33_7_Customer_service" class="cls-1" d="M174.48,42.12h-20.56C143.36,17.38,118.8,0,90.25,0S37.14,17.38,26.58,42.12H6.02c-3.32,0-6.02,2.7-6.02,6.02v42.12c0,3.32,2.7,6.02,6.02,6.02h24.07c.06,0,1.79-.06,2.59-.34,3.13-1.11,4.77-4.55,3.67-7.68-2.16-6.1-3.25-12.51-3.25-19.05,0-31.52,25.64-57.16,57.16-57.16s57.16,25.64,57.16,57.16c0,24.57-15.48,46.01-38.26,53.94-3.43-6.99-10.6-11.83-18.9-11.83-11.61,0-21.06,9.45-21.06,21.06s9.45,21.06,21.06,21.06c10.67,0,19.49-7.98,20.85-18.28,19.67-6.19,35.08-20.59,42.82-38.88h20.56c3.32,0,6.02-2.7,6.02-6.02v-42.12c0-3.32-2.7-6.02-6.02-6.02ZM12.03,54.15h10.69c-1.08,4.85-1.67,9.88-1.67,15.04s.61,10.13,1.7,15.04h-10.73v-30.08ZM90.25,141.39c-4.98,0-9.02-4.05-9.02-9.02s4.05-9.02,9.02-9.02,9.02,4.05,9.02,9.02-4.05,9.02-9.02,9.02ZM168.46,84.23h-10.72c1.07-4.86,1.69-9.89,1.69-15.04s-.59-10.19-1.67-15.04h10.69v30.08ZM90.25,105.29c-11.04,0-21.07-3.8-28.24-10.71-2.39-2.3-2.46-6.11-.16-8.51,2.31-2.39,6.11-2.46,8.51-.16,4.92,4.73,11.98,7.34,19.89,7.34s14.98-2.61,19.89-7.34c2.4-2.31,6.2-2.23,8.51.16,2.31,2.39,2.23,6.2-.16,8.51-7.17,6.9-17.2,10.71-28.24,10.71h0Z"/>
  </g>
</svg>