<?xml version="1.0" encoding="UTF-8"?>
<svg id="Capa_2" xmlns="http://www.w3.org/2000/svg" viewBox="0 0 61.93 61.94">
  <defs>
    <style>
      .cls-1 {
        fill: #fff;
      }
    </style>
  </defs>
  <g id="Capa_1-2" data-name="Capa_1">
    <g id="g174">
      <g id="g176">
        <g id="g178">
          <g id="g184">
            <g id="path186">
              <path class="cls-1" d="M31.53,61.93c-.38,0-.76,0-1.13,0-4.72,0-9.09-.13-13.34-.38-3.96-.24-7.57-1.61-10.44-3.95-2.76-2.25-4.65-5.31-5.61-9.07-.85-3.32-.89-6.6-.93-9.77-.04-2.6-.06-5.2-.07-7.79,0-2.61.04-5.2.07-7.8.04-3.17.09-6.45.93-9.77.96-3.77,2.85-6.82,5.61-9.07C9.49,1.99,13.1.62,17.06.38,21.48.11,26.01-.02,30.97,0c4.93-.01,9.48.11,13.91.38,3.96.24,7.56,1.6,10.44,3.95,2.76,2.25,4.65,5.31,5.61,9.07.85,3.32.89,6.6.93,9.77.04,2.6.06,5.19.07,7.79h0c0,2.61-.04,5.21-.07,7.8-.04,3.17-.09,6.45-.93,9.77-.96,3.76-2.85,6.82-5.61,9.07-2.87,2.34-6.48,3.71-10.44,3.95-4.25.26-8.62.38-13.35.38ZM30.96,58.07c4.84-.03,9.34-.11,13.68-.38,3.19-.19,5.96-1.23,8.23-3.09,2.11-1.72,3.56-4.09,4.31-7.03.73-2.87.77-5.92.81-8.87.04-2.58.06-5.16.07-7.74,0-2.58-.04-5.16-.07-7.74-.04-2.95-.08-6-.81-8.87-.75-2.95-2.2-5.32-4.31-7.03-2.27-1.85-5.04-2.89-8.23-3.08-4.34-.26-8.82-.38-13.67-.38-4.88,0-9.34.11-13.68.38-3.19.19-5.96,1.23-8.23,3.08-2.11,1.72-3.56,4.09-4.31,7.03-.73,2.87-.77,5.92-.81,8.87-.04,2.58-.06,5.16-.07,7.75,0,2.57.04,5.15.07,7.74.04,2.95.08,6,.81,8.87.75,2.95,2.2,5.31,4.31,7.03,2.27,1.85,5.04,2.89,8.23,3.09,4.34.26,8.82.36,13.67.38Z"/>
            </g>
          </g>
          <g id="g188">
            <g id="path190">
              <path class="cls-1" d="M30.84,45.81c-8.19,0-14.85-6.66-14.85-14.85s6.66-14.85,14.85-14.85,14.85,6.66,14.85,14.85-6.66,14.85-14.85,14.85ZM30.84,19.98c-6.06,0-10.99,4.93-10.99,10.99s4.93,10.99,10.99,10.99,10.99-4.93,10.99-10.99-4.93-10.99-10.99-10.99Z"/>
            </g>
          </g>
          <g id="g192">
            <g id="path194">
              <path class="cls-1" d="M51.64,14.36c0,2.04-1.65,3.69-3.69,3.69s-3.69-1.65-3.69-3.69,1.65-3.69,3.69-3.69,3.69,1.65,3.69,3.69"/>
            </g>
          </g>
        </g>
      </g>
    </g>
  </g>
</svg>