<?xml version="1.0" encoding="UTF-8"?>
<svg id="Capa_2" xmlns="http://www.w3.org/2000/svg" viewBox="0 0 61.79 60.78">
  <defs>
    <style>
      .cls-1 {
        fill: #fff;
      }
    </style>
  </defs>
  <g id="Capa_1-2" data-name="Capa_1">
    <g>
      <g>
        <path class="cls-1" d="M8.74.55c-2.23,0-4.25.81-5.77,2.33-1.62,1.62-2.43,3.64-2.43,5.77s.91,4.25,2.43,5.77c1.52,1.52,3.64,2.43,5.67,2.33h.2c2.02,0,3.95-.81,5.46-2.33,1.52-1.52,2.43-3.54,2.43-5.77.1-2.12-.81-4.15-2.33-5.67-1.52-1.62-3.54-2.43-5.67-2.43ZM12.89,12.99c-1.11,1.11-2.63,1.82-4.25,1.72-1.52,0-3.14-.61-4.25-1.72-1.21-1.11-1.82-2.73-1.82-4.35s.61-3.14,1.82-4.35c1.11-1.11,2.63-1.72,4.35-1.72,1.52,0,3.03.61,4.15,1.72,1.21,1.21,1.82,2.73,1.82,4.35s-.61,3.24-1.82,4.35Z"/>
        <path class="cls-1" d="M8.31,17.29c-2.02,0-4.14-.92-5.72-2.49-1.67-1.67-2.59-3.86-2.59-6.15S.9,4.18,2.59,2.49C4.19.88,6.38,0,8.74,0s4.49.92,6.06,2.6c1.67,1.67,2.58,3.89,2.47,6.07,0,2.27-.92,4.46-2.59,6.13-1.6,1.6-3.68,2.49-5.85,2.49h-.2c-.11,0-.22,0-.33,0ZM8.74,1.09c-2.1,0-3.96.75-5.38,2.17-1.48,1.48-2.27,3.34-2.27,5.38s.81,3.92,2.27,5.38c1.45,1.45,3.4,2.28,5.25,2.17h.23c1.88,0,3.68-.77,5.08-2.17,1.46-1.46,2.27-3.37,2.27-5.38.09-1.9-.7-3.81-2.17-5.28-1.38-1.47-3.25-2.27-5.28-2.27ZM8.94,15.27c-.11,0-.22,0-.33-.01h0c-1.69,0-3.42-.7-4.6-1.88-1.25-1.15-1.98-2.88-1.98-4.74s.68-3.44,1.98-4.74c1.23-1.23,2.87-1.88,4.74-1.88,1.69,0,3.34.69,4.53,1.88,1.3,1.3,1.98,2.93,1.98,4.74s-.73,3.58-1.99,4.75c-1.21,1.21-2.77,1.88-4.33,1.88ZM8.74,3.12c-1.57,0-2.94.54-3.96,1.56-1.09,1.09-1.66,2.46-1.66,3.96s.6,2.99,1.64,3.95c.99.99,2.44,1.58,3.88,1.58,1.39.08,2.79-.48,3.86-1.56l.02-.02c1.04-.96,1.64-2.39,1.64-3.95s-.57-2.88-1.66-3.96c-.99-.99-2.36-1.56-3.76-1.56Z"/>
      </g>
      <g>
        <path class="cls-1" d="M12.69,18.76H4.49c-1.62,0-2.93,1.32-2.93,3.03v35.41c0,1.62,1.42,3.03,3.03,3.03h8.09c1.62,0,3.03-1.42,3.03-2.93V21.79c0-1.62-1.42-3.03-3.03-3.03ZM13.7,57.3c0,.51-.51.91-1.01.91H4.59c-.51,0-1.01-.51-1.01-1.01V21.79c0-.51.4-1.01.91-1.01h8.19c.51,0,1.01.51,1.01,1.01v35.51Z"/>
        <path class="cls-1" d="M12.69,60.78H4.59c-1.91,0-3.58-1.67-3.58-3.58V21.79c0-2.01,1.53-3.58,3.48-3.58h8.19c1.91,0,3.58,1.67,3.58,3.58v35.51c0,1.85-1.67,3.48-3.58,3.48ZM4.49,19.3c-1.34,0-2.39,1.09-2.39,2.49v35.41c0,1.33,1.16,2.49,2.49,2.49h8.09c1.3,0,2.49-1.14,2.49-2.39V21.79c0-1.33-1.16-2.49-2.49-2.49H4.49ZM12.69,58.76H4.59c-.8,0-1.56-.76-1.56-1.56V21.79c0-.84.67-1.56,1.46-1.56h8.19c.8,0,1.56.76,1.56,1.56v35.51c0,.79-.71,1.46-1.56,1.46ZM4.49,21.33c-.18,0-.36.24-.36.46v35.41c0,.2.26.46.46.46h8.09c.23,0,.46-.19.46-.36V21.79c0-.2-.26-.46-.46-.46H4.49Z"/>
      </g>
      <g>
        <path class="cls-1" d="M47.08,17.74h-2.12c-3.95,0-7.69,1.72-10.12,4.45v-1.42c0-1.01-1.01-2.02-2.02-2.02h-10.12c-.91,0-2.02.81-2.02,1.92v37.73c0,1.11,1.11,1.82,2.02,1.82h11.13c.91,0,2.02-.71,2.02-1.82v-21.85c0-3.34,2.43-5.97,5.56-5.97,1.62,0,3.14.61,4.25,1.72,1.01.91,1.42,2.33,1.42,4.15v21.75c0,1.01,1.01,2.02,2.02,2.02h10.12c1.01,0,2.02-1.01,2.02-2.02v-26.1c0-8.09-6.17-14.37-14.16-14.37ZM59.22,58.11l-.1.1h-9.91l-.1-21.75c0-2.43-.61-4.25-1.92-5.56-1.52-1.52-3.54-2.33-5.67-2.33-4.25.1-7.59,3.54-7.59,7.99v21.65h-11.13V20.78h10.02l.1.1v6.37l2.73-2.73.1-.1c2.02-2.83,5.56-4.65,9.31-4.65h2.12c6.78,0,12.04,5.46,12.04,12.34v26Z"/>
        <path class="cls-1" d="M59.22,60.78h-10.12c-1.32,0-2.57-1.25-2.57-2.57v-21.75c0-1.77-.4-2.99-1.23-3.74-1.03-1.02-2.4-1.58-3.88-1.58-2.81,0-5.02,2.38-5.02,5.42v21.85c0,1.42-1.33,2.37-2.57,2.37h-11.13c-1.24,0-2.57-.95-2.57-2.37V20.68c0-1.41,1.36-2.47,2.57-2.47h10.12c1.32,0,2.57,1.25,2.57,2.57v.09c2.54-2.32,6.03-3.67,9.57-3.67h2.12c8.25,0,14.71,6.55,14.71,14.91v26.1c0,1.32-1.25,2.57-2.57,2.57ZM41.42,30.05c1.78,0,3.42.67,4.64,1.88,1.05.95,1.58,2.44,1.58,4.53v21.75c0,.7.77,1.48,1.48,1.48h10.12c.7,0,1.48-.77,1.48-1.48v-26.1c0-7.75-5.98-13.82-13.62-13.82h-2.12c-3.7,0-7.33,1.6-9.71,4.27l-.96,1.08v-2.85c0-.7-.77-1.48-1.48-1.48h-10.12c-.59,0-1.48.55-1.48,1.37v37.74c0,.79.86,1.27,1.48,1.27h11.13c.62,0,1.48-.48,1.48-1.27v-21.85c0-3.65,2.68-6.52,6.11-6.52ZM59.35,58.76h-10.68l-.1-22.3c0-2.3-.58-3.99-1.76-5.18-1.4-1.4-3.27-2.17-5.28-2.17-4.01.1-7.04,3.3-7.04,7.45v22.2h-12.22V20.23h10.79l.42.42v5.28l1.89-1.89c2.1-2.95,5.83-4.82,9.7-4.82h2.12c7.06,0,12.59,5.66,12.59,12.89v26.23l-.42.42ZM49.75,57.66h8.92v-25.55c0-6.61-5.05-11.79-11.49-11.79h-2.12c-3.52,0-6.91,1.69-8.86,4.42l-.15.17-3.67,3.67v-7.25h-9.02v36.34h10.03v-21.1c0-4.68,3.57-8.43,8.12-8.54,2.31,0,4.46.88,6.07,2.49,1.4,1.4,2.08,3.35,2.08,5.95l.1,21.2Z"/>
      </g>
    </g>
  </g>
</svg>