<?xml version="1.0" encoding="UTF-8"?>
<svg id="Capa_2" xmlns="http://www.w3.org/2000/svg" viewBox="0 0 36.34 64.03">
  <defs>
    <style>
      .cls-1 {
        fill: #fff;
      }
    </style>
  </defs>
  <g id="Capa_1-2" data-name="Capa_1">
    <path class="cls-1" d="M22.45,64.03h-10.25c-1.71,0-3.11-1.39-3.11-3.11v-23.13H3.11c-1.71,0-3.11-1.39-3.11-3.11v-9.91c0-1.71,1.39-3.11,3.11-3.11h5.98v-4.96c0-4.92,1.55-9.11,4.47-12.11C16.49,1.59,20.6,0,25.42,0h7.82c1.71.02,3.1,1.41,3.1,3.12v9.2c0,1.71-1.39,3.11-3.11,3.11h-5.27c-1.61,0-2.01.32-2.1.42-.14.16-.32.63-.32,1.9v3.92h7.29c.55,0,1.08.14,1.54.39.99.55,1.6,1.59,1.6,2.72v9.91c0,1.71-1.4,3.11-3.11,3.11h-7.31v23.13c0,1.71-1.39,3.11-3.11,3.11ZM12.84,60.28h8.96v-24.16c0-1.14.93-2.07,2.07-2.07h8.35v-8.61s-8.35,0-8.35,0c-1.14,0-2.07-.93-2.07-2.07v-5.6c0-1.47.15-3.13,1.26-4.39,1.34-1.52,3.45-1.69,4.92-1.69h4.62V3.77h-7.17c-7.76-.01-12.58,4.95-12.58,12.95v6.64c0,1.14-.93,2.07-2.07,2.07H3.75v8.61h7.02c1.14,0,2.07.93,2.07,2.07v24.16ZM33.24,3.77h0,0Z"/>
  </g>
</svg>