<?xml version="1.0" encoding="UTF-8"?>
<svg id="Capa_2" xmlns="http://www.w3.org/2000/svg" viewBox="0 0 60.01 60.01">
  <defs>
    <style>
      .cls-1 {
        fill: #fff;
      }
    </style>
  </defs>
  <g id="Capa_1-2" data-name="Capa_1">
    <path class="cls-1" d="M46.91,0H13.1C5.88,0,0,5.88,0,13.1v33.81c0,7.23,5.88,13.1,13.1,13.1h33.81c7.23,0,13.1-5.88,13.1-13.1V13.1c0-7.23-5.88-13.1-13.1-13.1ZM56.92,46.91c0,5.52-4.49,10.01-10.01,10.01H13.1c-5.52,0-10.01-4.49-10.01-10.01V13.1C3.09,7.58,7.58,3.09,13.1,3.09h33.81c5.52,0,10.01,4.49,10.01,10.01v33.81ZM34.27,27.17l11.67-14.55c.53-.67.43-1.64-.24-2.17-.67-.53-1.64-.43-2.17.24l-11.24,14.02-11.24-14.02c-.29-.37-.74-.58-1.21-.58h-9.11c-.59,0-1.14.34-1.39.88s-.18,1.17.19,1.64l16.23,20.23-11.67,14.55c-.53.67-.43,1.64.24,2.17.29.23.63.34.97.34.45,0,.9-.2,1.21-.58l11.25-14.02,11.24,14.02c.29.37.74.58,1.21.58h9.11c.85,0,1.55-.69,1.55-1.55,0-.39-.15-.75-.39-1.03l-16.18-20.17ZM40.92,46.82L13.95,13.2h5.14l26.97,33.62h-5.14Z"/>
  </g>
</svg>